<?xml version="1.0" encoding="UTF-8" standalone="no"?>
<!-- Created with Inkscape (http://www.inkscape.org/) -->

<svg
   xmlns:dc="http://purl.org/dc/elements/1.1/"
   xmlns:cc="http://creativecommons.org/ns#"
   xmlns:rdf="http://www.w3.org/1999/02/22-rdf-syntax-ns#"
   xmlns:svg="http://www.w3.org/2000/svg"
   xmlns="http://www.w3.org/2000/svg"
   version="1.1"
   width="370"
   height="370"
   id="svg3453">
  <metadata
     id="metadata3528">
    <rdf:RDF>
      <cc:Work
         rdf:about="">
        <dc:format>image/svg+xml</dc:format>
        <dc:type
           rdf:resource="http://purl.org/dc/dcmitype/StillImage" />
        <dc:title></dc:title>
      </cc:Work>
    </rdf:RDF>
  </metadata>
  <defs
     id="defs3526" />
  <line
     x1="110"
     y1="10"
     x2="260"
     y2="10"
     stroke="black"
     id="line3455"
     style="stroke:#000000" />
  <line
     x1="60"
     y1="60"
     x2="310"
     y2="60"
     stroke="black"
     id="line3457"
     style="stroke:#000000" />
  <line
     x1="10"
     y1="110"
     x2="360"
     y2="110"
     stroke="black"
     id="line3459"
     style="stroke:#000000" />
  <line
     x1="10"
     y1="160"
     x2="360"
     y2="160"
     stroke="black"
     id="line3461"
     style="stroke:#000000" />
  <line
     x1="10"
     y1="210"
     x2="360"
     y2="210"
     stroke="black"
     id="line3463"
     style="stroke:#000000" />
  <line
     x1="10"
     y1="260"
     x2="360"
     y2="260"
     stroke="black"
     id="line3465"
     style="stroke:#000000" />
  <line
     x1="60"
     y1="310"
     x2="310"
     y2="310"
     stroke="black"
     id="line3467"
     style="stroke:#000000" />
  <line
     x1="110"
     y1="360"
     x2="260"
     y2="360"
     stroke="black"
     id="line3469"
     style="stroke:#000000" />
  <line
     x1="10"
     y1="110"
     x2="10"
     y2="260"
     stroke="black"
     id="line3471"
     style="stroke:#000000" />
  <line
     x1="60"
     y1="60"
     x2="60"
     y2="310"
     stroke="black"
     id="line3473"
     style="stroke:#000000" />
  <line
     x1="110"
     y1="10"
     x2="110"
     y2="360"
     stroke="black"
     id="line3475"
     style="stroke:#000000" />
  <line
     x1="160"
     y1="10"
     x2="160"
     y2="360"
     stroke="black"
     id="line3477"
     style="stroke:#000000" />
  <line
     x1="210"
     y1="10"
     x2="210"
     y2="360"
     stroke="black"
     id="line3479"
     style="stroke:#000000" />
  <line
     x1="260"
     y1="10"
     x2="260"
     y2="360"
     stroke="black"
     id="line3481"
     style="stroke:#000000" />
  <line
     x1="310"
     y1="60"
     x2="310"
     y2="310"
     stroke="black"
     id="line3483"
     style="stroke:#000000" />
  <line
     x1="360"
     y1="110"
     x2="360"
     y2="260"
     stroke="black"
     id="line3485"
     style="stroke:#000000" />
  <circle
     cx="135"
     cy="35"
     r="15"
     id="circleC1"
     style="fill:#b39ddb" />
  <circle
     cx="185"
     cy="35"
     r="15"
     id="circleD1"
     style="fill:#b39ddb" />
  <circle
     cx="235"
     cy="35"
     r="15"
     id="circleE1"
     style="fill:#b39ddb" />
  <circle
     cx="85"
     cy="85"
     r="15"
     id="circleB2"
     style="fill:#b39ddb" />
  <circle
     cx="135"
     cy="85"
     r="15"
     id="circleC2"
     style="fill:#b39ddb" />
  <circle
     cx="185"
     cy="85"
     r="15"
     id="circleD2"
     style="fill:#b39ddb" />
  <circle
     cx="235"
     cy="85"
     r="15"
     id="circleE2"
     style="fill:#b39ddb" />
  <circle
     cx="285"
     cy="85"
     r="15"
     id="circleF2"
     style="fill:#b39ddb" />
  <circle
     cx="35"
     cy="135"
     r="15"
     id="circleA3"
     style="fill:#b39ddb" />
  <circle
     cx="85"
     cy="135"
     r="15"
     id="circleB3"
     style="fill:#b39ddb" />
  <circle
     cx="135"
     cy="135"
     r="15"
     id="circleC3"
     style="fill:#b39ddb" />
  <circle
     cx="185"
     cy="135"
     r="15"
     id="circleD3"
     style="fill:#b39ddb" />
  <circle
     cx="235"
     cy="135"
     r="15"
     id="circleE3"
     style="fill:#b39ddb" />
  <circle
     cx="285"
     cy="135"
     r="15"
     id="circleF3"
     style="fill:#b39ddb" />
  <circle
     cx="335"
     cy="135"
     r="15"
     id="circleG3"
     style="fill:#b39ddb" />
  <circle
     cx="35"
     cy="185"
     r="15"
     id="circleA4"
     style="fill:#b39ddb" />
  <circle
     cx="85"
     cy="185"
     r="15"
     id="circleB4"
     style="fill:#b39ddb" />
  <circle
     cx="135"
     cy="185"
     r="15"
     id="circleC4"
     style="fill:#b39ddb" />
  <circle
     cx="185"
     cy="185"
     r="15"
     id="circleD4"
     style="fill:#b39ddb" />
  <circle
     cx="235"
     cy="185"
     r="15"
     id="circleE4"
     style="fill:#b39ddb" />
  <circle
     cx="285"
     cy="185"
     r="15"
     id="circleF4"
     style="fill:#b39ddb" />
  <circle
     cx="335"
     cy="185"
     r="15"
     id="circleG4"
     style="fill:#b39ddb" />
  <circle
     cx="35"
     cy="235"
     r="15"
     id="circleA5"
     style="fill:#b39ddb" />
  <circle
     cx="85"
     cy="235"
     r="15"
     id="circleB5"
     style="fill:#b39ddb" />
  <circle
     cx="135"
     cy="235"
     r="15"
     id="circleC5"
     style="fill:#b39ddb" />
  <circle
     cx="185"
     cy="235"
     r="15"
     id="circleD5"
     style="fill:#b39ddb" />
  <circle
     cx="235"
     cy="235"
     r="15"
     id="circleE5"
     style="fill:#b39ddb" />
  <circle
     cx="285"
     cy="235"
     r="15"
     id="circleF5"
     style="fill:#b39ddb" />
  <circle
     cx="335"
     cy="235"
     r="15"
     id="circleG5"
     style="fill:#b39ddb" />
  <circle
     cx="85"
     cy="285"
     r="15"
     id="circleB6"
     style="fill:#b39ddb" />
  <circle
     cx="135"
     cy="285"
     r="15"
     id="circleC6"
     style="fill:#b39ddb" />
  <circle
     cx="185"
     cy="285"
     r="15"
     id="circleD6"
     style="fill:#b39ddb" />
  <circle
     cx="235"
     cy="285"
     r="15"
     id="circleE6"
     style="fill:#b39ddb" />
  <circle
     cx="285"
     cy="285"
     r="15"
     id="circleF6"
     style="fill:#b39ddb" />
  <circle
     cx="135"
     cy="335"
     r="15"
     id="circleC7"
     style="fill:#b39ddb" />
  <circle
     cx="185"
     cy="335"
     r="15"
     id="circleD7"
     style="fill:#b39ddb" />
  <circle
     cx="235"
     cy="335"
     r="15"
     id="circleE7"
     style="fill:#b39ddb" />
</svg>
