<?xml version="1.0" encoding="UTF-8" standalone="no"?>
<svg xmlns:svg="http://www.w3.org/2000/svg"	xmlns="http://www.w3.org/2000/svg" version="1.1" width="370" height="370">
	<line x1="110" y1="10" x2="260" y2="10" stroke="black" />
	<line x1="60" y1="60" x2="310" y2="60" stroke="black" />
	<line x1="10" y1="110" x2="360" y2="110" stroke="black" />
	<line x1="10" y1="160" x2="360" y2="160" stroke="black" />
	<line x1="10" y1="210" x2="360" y2="210" stroke="black" />
	<line x1="10" y1="260" x2="360" y2="260" stroke="black" />
	<line x1="60" y1="310" x2="310" y2="310" stroke="black" />
	<line x1="110" y1="360" x2="260" y2="360" stroke="black" />
	<line x1="10" y1="110" x2="10" y2="260" stroke="black" />
	<line x1="60" y1="60" x2="60" y2="310" stroke="black" />
	<line x1="110" y1="10" x2="110" y2="360" stroke="black" />
	<line x1="160" y1="10" x2="160" y2="360" stroke="black" />
	<line x1="210" y1="10" x2="210" y2="360" stroke="black" />
	<line x1="260" y1="10" x2="260" y2="360" stroke="black" />
	<line x1="310" y1="60" x2="310" y2="310" stroke="black" />
	<line x1="360" y1="110" x2="360" y2="260" stroke="black" />
	<circle cx="135" cy="35" r="15" id="circleC1" fill="#b39ddb" />
	<circle cx="185" cy="35" r="15" id="circleD1" fill="#b39ddb" />
	<circle cx="235" cy="35" r="15" id="circleE1" fill="#b39ddb" />
	<circle cx="85" cy="85" r="15" id="circleB2" fill="#b39ddb" />
	<circle cx="135" cy="85" r="15" id="circleC2" fill="#b39ddb" />
	<circle cx="185" cy="85" r="15" id="circleD2" fill="#b39ddb" />
	<circle cx="235" cy="85" r="15" id="circleE2" fill="#b39ddb" />
	<circle cx="285" cy="85" r="15" id="circleF2" fill="#b39ddb" />
	<circle cx="35" cy="135" r="15" id="circleA3" fill="#b39ddb" />
	<circle cx="85" cy="135" r="15" id="circleB3" fill="#b39ddb" />
	<circle cx="135" cy="135" r="15" id="circleC3" fill="#b39ddb" />
	<circle cx="185" cy="135" r="15" id="circleD3" fill="#b39ddb" />
	<circle cx="235" cy="135" r="15" id="circleE3" fill="#b39ddb" />
	<circle cx="285" cy="135" r="15" id="circleF3" fill="#b39ddb" />
	<circle cx="335" cy="135" r="15" id="circleG3" fill="#b39ddb" />
	<circle cx="35" cy="185" r="15" id="circleA4" fill="#b39ddb" />
	<circle cx="85" cy="185" r="15" id="circleB4" fill="#b39ddb" />
	<circle cx="135" cy="185" r="15" id="circleC4" fill="#b39ddb" />
	<circle cx="185" cy="185" r="15" id="circleD4" fill="#b39ddb" />
	<circle cx="235" cy="185" r="15" id="circleE4" fill="#b39ddb" />
	<circle cx="285" cy="185" r="15" id="circleF4" fill="#b39ddb" />
	<circle cx="335" cy="185" r="15" id="circleG4" fill="#b39ddb" />
	<circle cx="35" cy="235" r="15" id="circleA5" fill="#b39ddb" />
	<circle cx="85" cy="235" r="15" id="circleB5" fill="#b39ddb" />
	<circle cx="135" cy="235" r="15" id="circleC5" fill="#b39ddb" />
	<circle cx="185" cy="235" r="15" id="circleD5" fill="#b39ddb" />
	<circle cx="235" cy="235" r="15" id="circleE5" fill="#b39ddb" />
	<circle cx="285" cy="235" r="15" id="circleF5" fill="#b39ddb" />
	<circle cx="335" cy="235" r="15" id="circleG5" fill="#b39ddb" />
	<circle cx="85" cy="285" r="15" id="circleB6" fill="#b39ddb" />
	<circle cx="135" cy="285" r="15" id="circleC6" fill="#b39ddb" />
	<circle cx="185" cy="285" r="15" id="circleD6" fill="#b39ddb" />
	<circle cx="235" cy="285" r="15" id="circleE6" fill="#b39ddb" />
	<circle cx="285" cy="285" r="15" id="circleF6" fill="#b39ddb" />
	<circle cx="135" cy="335" r="15" id="circleC7" fill="#b39ddb" />
	<circle cx="185" cy="335" r="15" id="circleD7" fill="#b39ddb" />
	<circle cx="235" cy="335" r="15" id="circleE7" fill="#b39ddb" />
</svg>
