<?xml version="1.0" encoding="UTF-8"?>
<svg xmlns="http://www.w3.org/2000/svg" width="512" height="512" viewBox="0 0 512 512">
<defs>
  <linearGradient id="fond" x1="0" y1="0" x2="0" y2="1">
   <stop offset="0" stop-color="#9575cd"/><stop offset="1" stop-color="#512da8"/>
  </linearGradient>
  <radialGradient id="plateau" cx="0.5" cy="0.5" r="0.5" fx="0.3" fy="0.3">
   <stop offset="0" stop-color="#fbf5ff"/><stop offset="1" stop-color="#ddd7e8"/>
  </radialGradient>
  <linearGradient id="trou" x1="0.15" y1="0.15" x2="0.85" y2="0.85">
   <stop offset="0" stop-color="#94909a"/><stop offset="1" stop-color="#e2dcea"/>
  </linearGradient>
  <radialGradient id="bille" cx="0.5" cy="0.5" r="0.5" fx="0.35" fy="0.35">
   <stop offset="0" stop-color="#ceb5fc"/><stop offset="0.7" stop-color="#b39ddb"/><stop offset="1" stop-color="#9c89be"/>
  </radialGradient>
  <radialGradient id="reflet" cx="0.5" cy="0.5" r="0.5">
   <stop offset="0" stop-color="#fff" stop-opacity="0.86"/><stop offset="0.6" stop-color="#fff" stop-opacity="0.63"/><stop offset="1" stop-color="#fff" stop-opacity="0"/>
  </radialGradient>
  <filter id="ombre" x="-20%" y="-20%" width="140%" height="140%">
   <feGaussianBlur stdDeviation="10"/>
  </filter>
 </defs>
 <rect x="40" y="48" width="432" height="432" rx="96" fill="#000" opacity="0.3" filter="url(#ombre)"/>
 <rect x="40" y="40" width="432" height="432" rx="96" fill="url(#fond)"/>
 <rect x="41.5" y="41.5" width="429" height="429" rx="94.5" fill="none" stroke="#fff" stroke-opacity="0.18" stroke-width="3"/>
 <circle cx="260" cy="266" r="180" fill="#000" opacity="0.35" filter="url(#ombre)"/>
 <circle cx="256" cy="256" r="180" fill="url(#plateau)" stroke="#a9a5b0" stroke-width="4.16"/>
 <circle cx="258.08" cy="258.08" r="154.00" fill="none" stroke="#fff" stroke-width="3.12"/>
 <circle cx="256" cy="256" r="154.00" fill="none" stroke="#b0abb8" stroke-width="3.12"/>
 <circle cx="152.00" cy="152.00" r="37.44" fill="url(#trou)" stroke="#c6c1cd" stroke-width="2.25"/>
 <circle cx="152.00" cy="152.00" r="31.20" fill="url(#bille)" stroke="#776992" stroke-width="3.74"/>
 <circle cx="139.52" cy="139.52" r="9.36" fill="url(#reflet)"/>
 <circle cx="256.00" cy="152.00" r="37.44" fill="url(#trou)" stroke="#c6c1cd" stroke-width="2.25"/>
 <circle cx="256.00" cy="152.00" r="31.20" fill="url(#bille)" stroke="#776992" stroke-width="3.74"/>
 <circle cx="243.52" cy="139.52" r="9.36" fill="url(#reflet)"/>
 <circle cx="360.00" cy="152.00" r="37.44" fill="url(#trou)" stroke="#c6c1cd" stroke-width="2.25"/>
 <circle cx="360.00" cy="152.00" r="31.20" fill="url(#bille)" stroke="#776992" stroke-width="3.74"/>
 <circle cx="347.52" cy="139.52" r="9.36" fill="url(#reflet)"/>
 <circle cx="152.00" cy="256.00" r="37.44" fill="url(#trou)" stroke="#c6c1cd" stroke-width="2.25"/>
 <circle cx="152.00" cy="256.00" r="31.20" fill="url(#bille)" stroke="#776992" stroke-width="3.74"/>
 <circle cx="139.52" cy="243.52" r="9.36" fill="url(#reflet)"/>
 <circle cx="256.00" cy="256.00" r="37.44" fill="url(#trou)" stroke="#c6c1cd" stroke-width="2.25"/>
 <circle cx="360.00" cy="256.00" r="37.44" fill="url(#trou)" stroke="#c6c1cd" stroke-width="2.25"/>
 <circle cx="360.00" cy="256.00" r="31.20" fill="url(#bille)" stroke="#776992" stroke-width="3.74"/>
 <circle cx="347.52" cy="243.52" r="9.36" fill="url(#reflet)"/>
 <circle cx="152.00" cy="360.00" r="37.44" fill="url(#trou)" stroke="#c6c1cd" stroke-width="2.25"/>
 <circle cx="152.00" cy="360.00" r="31.20" fill="url(#bille)" stroke="#776992" stroke-width="3.74"/>
 <circle cx="139.52" cy="347.52" r="9.36" fill="url(#reflet)"/>
 <circle cx="256.00" cy="360.00" r="37.44" fill="url(#trou)" stroke="#c6c1cd" stroke-width="2.25"/>
 <circle cx="256.00" cy="360.00" r="31.20" fill="url(#bille)" stroke="#776992" stroke-width="3.74"/>
 <circle cx="243.52" cy="347.52" r="9.36" fill="url(#reflet)"/>
 <circle cx="360.00" cy="360.00" r="37.44" fill="url(#trou)" stroke="#c6c1cd" stroke-width="2.25"/>
 <circle cx="360.00" cy="360.00" r="31.20" fill="url(#bille)" stroke="#776992" stroke-width="3.74"/>
 <circle cx="347.52" cy="347.52" r="9.36" fill="url(#reflet)"/>
</svg>
